<?xml version="1.0" encoding="utf-8"?>
<!-- Generator: Adobe Illustrator 23.0.3, SVG Export Plug-In . SVG Version: 6.00 Build 0)  -->
<svg version="1.1" id="Layer_1" xmlns="http://www.w3.org/2000/svg" xmlns:xlink="http://www.w3.org/1999/xlink" x="0px" y="0px"
	 viewBox="0 0 2000 2000" style="enable-background:new 0 0 2000 2000;" xml:space="preserve">
<style type="text/css">
	.st0{fill:none;stroke:#FFFFFF;stroke-width:16.8515;stroke-miterlimit:10;}
	.st1{fill:url(#SVGID_1_);stroke:#FFFFFF;stroke-width:16.8515;stroke-miterlimit:10;}
	.st2{fill:url(#SVGID_2_);stroke:#FFFFFF;stroke-width:16.8515;stroke-miterlimit:10;}
	.st3{fill:url(#SVGID_3_);stroke:#FFFFFF;stroke-width:16.8515;stroke-miterlimit:10;}
	.st4{stroke:#FFFFFF;stroke-width:16.8515;stroke-miterlimit:10;}
	.st5{fill:none;stroke:#000000;stroke-width:14.7236;stroke-miterlimit:10;}
	.st6{fill:none;stroke:#FFFFFF;stroke-width:13.3614;stroke-miterlimit:10;}
	.st7{fill:#EAEAE8;}
</style>
<g>
	<g>
		<path class="st0" d="M1606.7,601.9c0-341.2-271.6-568.7-606.7-568.7S393.3,260.6,393.3,601.9s303.3,796.2,303.3,947.9
			c0,8.2,1.9,15.9,5.2,23.2c7.4-13.8,21.9-23.2,38.6-23.2h519.1c16.6,0,31.2,9.4,38.6,23.2c3.3-7.3,5.2-15,5.2-23.2
			C1303.3,1398.1,1606.7,943.1,1606.7,601.9z"/>
		<linearGradient id="SVGID_1_" gradientUnits="userSpaceOnUse" x1="696.6725" y1="1606.655" x2="1303.3275" y2="1606.655">
			<stop  offset="0" style="stop-color:#EDEDED"/>
			<stop  offset="1" style="stop-color:#9D9D9C"/>
		</linearGradient>
		<path class="st1" d="M1259.5,1549.8H740.5c-16.6,0-31.2,9.4-38.6,23.2c-3.3,6.2-5.2,13.2-5.2,20.6v26.2
			c0,24.1,19.7,43.8,43.8,43.8h519.1c24.1,0,43.8-19.7,43.8-43.8v-26.2c0-7.4-1.9-14.5-5.2-20.6
			C1290.7,1559.2,1276.2,1549.8,1259.5,1549.8z"/>
		<linearGradient id="SVGID_2_" gradientUnits="userSpaceOnUse" x1="696.6725" y1="1720.4028" x2="1303.3275" y2="1720.4028">
			<stop  offset="0" style="stop-color:#EDEDED"/>
			<stop  offset="1" style="stop-color:#9D9D9C"/>
		</linearGradient>
		<path class="st2" d="M740.5,1663.5c-24.1,0-43.8,19.7-43.8,43.8v26.2c0,24.1,19.7,43.8,43.8,43.8h519.1
			c24.1,0,43.8-19.7,43.8-43.8v-26.2c0-24.1-19.7-43.8-43.8-43.8H740.5z"/>
		<linearGradient id="SVGID_3_" gradientUnits="userSpaceOnUse" x1="696.6725" y1="1834.1506" x2="1303.3275" y2="1834.1506">
			<stop  offset="0" style="stop-color:#EDEDED"/>
			<stop  offset="1" style="stop-color:#9D9D9C"/>
		</linearGradient>
		<path class="st3" d="M696.7,1821.1v26.2c0,24.1,19.7,43.8,43.8,43.8h519.1c24.1,0,43.8-19.7,43.8-43.8v-26.2
			c0-24.1-19.7-43.8-43.8-43.8H740.5C716.4,1777.3,696.7,1797,696.7,1821.1z"/>
		<path class="st4" d="M848.3,1966.9h303.3c24.1,0,132-75.8,107.9-75.8H740.5C716.4,1891,824.3,1966.9,848.3,1966.9z"/>
		<path class="st5" d="M886.3,1124.1"/>
		<path class="st5" d="M962.1,1189.6"/>
		<path class="st5" d="M1113.7,1124.1"/>
		<path class="st6" d="M1151.7,1549.8c-0.8-31.8,151.7-381.4,151.7-508.5c0-117-50.9-211.9-113.7-211.9s-113.7,94.9-113.7,211.9
			c0,3.5,0,7,0.1,10.4c1.4,53.9,74.2,53.9,75.6,0c0.1-3.4,0.1-6.9,0.1-10.4c0-117-67.9-211.9-151.7-211.9s-151.7,94.9-151.7,211.9
			c0,3.5,0,7,0.1,10.4c1.4,53.9,74.2,53.9,75.6,0c0.1-3.4,0.1-6.9,0.1-10.4c0-117-50.9-211.9-113.7-211.9s-113.7,94.9-113.7,211.9
			c0,127.1,150.9,476.7,151.7,508.5H1151.7z"/>
	</g>
	<path class="st7" d="M1053.7,155.1c-147.2-5.7-27.9,283.2,12.5,340.4c34.8,49.2,114.6,72.3,169.9,110c11.4,7.8,26.5,24.1,34.4,35.5
		c40.4,58.4,214.8,64.6,204.7-31.3C1464.3,506,1137.8,158.4,1053.7,155.1z"/>
</g>
</svg>
