<?xml version="1.0" encoding="utf-8"?>
<!-- Generator: Adobe Illustrator 23.0.3, SVG Export Plug-In . SVG Version: 6.00 Build 0)  -->
<svg version="1.1" id="Layer_1" xmlns="http://www.w3.org/2000/svg" xmlns:xlink="http://www.w3.org/1999/xlink" x="0px" y="0px"
	 viewBox="0 0 2000 2000" style="enable-background:new 0 0 2000 2000;" xml:space="preserve">
<style type="text/css">
	.st0{fill:none;stroke:#000000;stroke-width:16.8515;stroke-miterlimit:10;}
	.st1{fill:url(#SVGID_1_);stroke:#000000;stroke-width:16.8515;stroke-miterlimit:10;}
	.st2{fill:url(#SVGID_2_);stroke:#000000;stroke-width:16.8515;stroke-miterlimit:10;}
	.st3{fill:url(#SVGID_3_);stroke:#000000;stroke-width:16.8515;stroke-miterlimit:10;}
	.st4{stroke:#000000;stroke-width:16.8515;stroke-miterlimit:10;}
	.st5{fill:none;stroke:#000000;stroke-width:14.7236;stroke-miterlimit:10;}
	.st6{clip-path:url(#SVGID_7_);fill:none;stroke:#FFED00;stroke-width:18;stroke-linejoin:bevel;stroke-miterlimit:10;}
	.st7{opacity:0.55;clip-path:url(#SVGID_7_);fill:none;stroke:#000000;stroke-width:13.3614;stroke-miterlimit:10;}
</style>
<g>
	<g>
		<path class="st0" d="M1606.7,601.9c0-341.2-271.6-568.7-606.7-568.7S393.3,260.6,393.3,601.9s303.3,796.2,303.3,947.9
			c0,8.2,1.9,15.9,5.2,23.2c7.4-13.8,21.9-23.2,38.6-23.2h519.1c16.6,0,31.2,9.4,38.6,23.2c3.3-7.3,5.2-15,5.2-23.2
			C1303.3,1398.1,1606.7,943.1,1606.7,601.9z"/>
		<linearGradient id="SVGID_1_" gradientUnits="userSpaceOnUse" x1="696.6725" y1="1606.655" x2="1303.3275" y2="1606.655">
			<stop  offset="0" style="stop-color:#EDEDED"/>
			<stop  offset="1" style="stop-color:#9D9D9C"/>
		</linearGradient>
		<path class="st1" d="M1259.5,1549.8H740.5c-16.6,0-31.2,9.4-38.6,23.2c-3.3,6.2-5.2,13.2-5.2,20.6v26.2
			c0,24.1,19.7,43.8,43.8,43.8h519.1c24.1,0,43.8-19.7,43.8-43.8v-26.2c0-7.4-1.9-14.5-5.2-20.6
			C1290.7,1559.2,1276.2,1549.8,1259.5,1549.8z"/>
		<linearGradient id="SVGID_2_" gradientUnits="userSpaceOnUse" x1="696.6725" y1="1720.4028" x2="1303.3275" y2="1720.4028">
			<stop  offset="0" style="stop-color:#EDEDED"/>
			<stop  offset="1" style="stop-color:#9D9D9C"/>
		</linearGradient>
		<path class="st2" d="M740.5,1663.5c-24.1,0-43.8,19.7-43.8,43.8v26.2c0,24.1,19.7,43.8,43.8,43.8h519.1
			c24.1,0,43.8-19.7,43.8-43.8v-26.2c0-24.1-19.7-43.8-43.8-43.8H740.5z"/>
		<linearGradient id="SVGID_3_" gradientUnits="userSpaceOnUse" x1="696.6725" y1="1834.1506" x2="1303.3275" y2="1834.1506">
			<stop  offset="0" style="stop-color:#EDEDED"/>
			<stop  offset="1" style="stop-color:#9D9D9C"/>
		</linearGradient>
		<path class="st3" d="M696.7,1821.1v26.2c0,24.1,19.7,43.8,43.8,43.8h519.1c24.1,0,43.8-19.7,43.8-43.8v-26.2
			c0-24.1-19.7-43.8-43.8-43.8H740.5C716.4,1777.3,696.7,1797,696.7,1821.1z"/>
		<path class="st4" d="M848.3,1966.9h303.3c24.1,0,132-75.8,107.9-75.8H740.5C716.4,1891,824.3,1966.9,848.3,1966.9z"/>
		<path class="st5" d="M886.3,1124.1"/>
		<path class="st5" d="M962.1,1189.6"/>
		<path class="st5" d="M1113.7,1124.1"/>
	</g>
</g>
<g>
	
		<image style="overflow:visible;" width="12075" height="12179" xlink:href="D68879C7CA4E962E.png"  transform="matrix(0.24 0 0 0.24 -497.28 -647.28)">
	</image>
	<g>
		<g>
			<defs>
				<path id="SVGID_4_" d="M1595.2,601.7c0-335.1-266.5-558.6-595.2-558.6S404.7,266.6,404.7,601.7s297.6,782,297.6,930.9
					c0,8,1.8,15.6,5.1,22.8c7.3-13.5,21.5-22.8,37.9-22.8h509.3c16.3,0,30.6,9.2,37.9,22.8c3.3-7.2,5.1-14.7,5.1-22.8
					C1297.6,1383.7,1595.2,936.8,1595.2,601.7z"/>
			</defs>
			<clipPath id="SVGID_5_">
				<use xlink:href="#SVGID_4_"  style="overflow:visible;"/>
			</clipPath>
		</g>
		<g>
			<defs>
				<path id="SVGID_6_" d="M1595.2,601.7c0-335.1-266.5-558.6-595.2-558.6S404.7,266.6,404.7,601.7s297.6,782,297.6,930.9
					c0,8,1.8,15.6,5.1,22.8c7.3-13.5,21.5-22.8,37.9-22.8h509.3c16.3,0,30.6,9.2,37.9,22.8c3.3-7.2,5.1-14.7,5.1-22.8
					C1297.6,1383.7,1595.2,936.8,1595.2,601.7z"/>
			</defs>
			<clipPath id="SVGID_7_">
				<use xlink:href="#SVGID_6_"  style="overflow:visible;"/>
			</clipPath>
			<path class="st6" d="M329.2,423.4C463.2,276.8,597.1,130.3,731-16.2c-130.6,174-261.2,348.1-391.8,522.1
				C526.5,297.1,713.8,88.4,901-120.3c-222,259-444.1,518-666.1,777.1C443.8,425.6,652.8,194.5,861.7-36.6
				C652.9,225.8,444.1,488.2,235.2,750.7C505,454.1,774.7,157.6,1044.4-139C791.9,151.7,539.5,442.3,287,732.9
				c268.8-289.7,537.6-579.4,806.3-869.1c-327.5,403.3-655.1,806.7-982.6,1210c313.4-337,626.8-674.1,940.2-1011.1
				C759.9,393.9,469,725.1,178,1056.3C516.6,618.7,855.1,181.2,1193.7-256.4C933,34,672.3,324.4,411.6,614.8
				c285.1-265.2,570.2-530.3,855.3-795.5c-262,348.9-524,697.7-786,1046.6C781,445.4,1117.4,50.9,1485.1-311.9
				C1047.2,141.9,635.2,620.8,251.9,1121.7C672,586.9,1136.7,87.2,1639.6-370.6C1060.3,183.1,502.1,758.9-33.4,1355.2
				C511.5,783.7,1058.1,210.7,1668.5-290C1099.1,280.3,529.1,851.3,3.1,1462C587.8,977.7,1152.5,469.1,1695.2-62
				C1070.9,494,473.7,1080.3-98.1,1690.3c455.5-657.9,988.5-1262,1584.5-1795.7C970,401.9,490.5,946.7,52.9,1523.5
				C596.3,967.2,1139.6,410.9,1683-145.3C1241.8,288.5,800.5,722.4,359.3,1156.2c510.3-479,1020.6-958,1530.9-1437.1
				C1416.6,272,942.9,824.9,469.2,1377.8c332.7-440.3,721.6-838,1154.2-1180.5c-531.1,381.4-1035.2,800.5-1507.3,1253
				c316.5-408.3,658-797,1022.1-1163.3c-284.8,412-569.6,824.1-854.3,1236.1c410.2-503,839.6-990.3,1286.9-1460.5
				C1150.8,498.4,728.2,937.4,395,1442.8C839.8,916.4,1336.5,434,1875.6,4.9c-554.9,505.5-1086.3,1036.9-1591.8,1592
				C737.9,1048.7,1242.1,542,1788.1,85.4c-464.8,469.5-929.6,939-1394.4,1408.5c432.2-362.6,864.5-725.2,1296.7-1087.8
				C1217.5,869.4,744.7,1332.7,271.8,1796c460.3-493.3,925-990.5,1477-1378.4C1368.9,788.3,1009.4,1180,672.5,1590.2
				c340.9-409.2,708.2-796.3,1098.9-1158C1316.3,828,889.7,1256.6,495.8,1713.5C1010.2,1226.8,1524.5,740,2038.9,253.2
				c-431.8,428.4-863.6,856.8-1295.4,1285.2c283.9-289.9,567.8-579.9,851.7-869.8c-300.6,399.4-601.2,798.8-901.8,1198.2
				c383.3-387.7,766.7-775.3,1150-1163c-344.1,367.1-688.2,734.3-1032.3,1101.4c220.2-285.5,474.8-544.5,756.4-769.6
				c-244.4,321.1-488.8,642.1-733.2,963.2c339.6-320.2,679.2-640.3,1018.8-960.5c-224.8,226.7-449.6,453.3-674.5,680
				c309.7-425.5,619.5-851.1,929.2-1276.6c-499.2,283.7-969.9,617.8-1402.4,995.7C1056,927.8,1450,448.1,1881.9,5.3
				C1504.8,324,1158.7,679.4,850,1064.8c342.5-280.6,684.9-561.2,1027.4-841.9c-289.8,294.9-579.7,589.8-869.5,884.7
				c273.3-320.9,546.6-641.9,819.9-962.8c-405,193.5-784.6,440.5-1125.7,732.4c232.7-250.8,465.4-501.6,698.1-752.4
				c-275,235.1-550,470.2-825,705.3c213.3-236.4,426.7-472.8,640-709.2c-514.6,489.6-994.8,1015.4-1436,1572.1
				C329.6,1118.1,886.9,537.2,1558,109.6C1165.1,629.8,772.2,1150,379.3,1670.2c480.5-359.9,960.9-719.9,1441.4-1079.8
				c-470,355.9-940.1,711.8-1410.1,1067.7c350.8-265.3,701.5-530.5,1052.3-795.8c-139.7,313.3-349,595.2-608.3,819.5
				c452.1-438,876.7-904.6,1270.3-1396C1630.5,703.8,1136.1,1121.9,641.8,1540c312.2-229,624.4-458,936.6-687
				c-261.9,283.5-523.9,567-785.8,850.5c335.8-296.9,671.6-593.8,1007.4-890.7c-369.5,318.1-739.1,636.2-1108.6,954.3
				c265.9-143.6,531.7-287.2,797.6-430.8c-118.7,137.4-237.5,274.9-356.2,412.3c190-206.8,380.1-413.5,570.1-620.3
				c-306.5,179.3-613.1,358.7-919.6,538c233.5-293.9,491.2-568.6,769.7-820.2c-373.2,313.6-746.4,627.3-1119.6,940.9
				c241.7-306.7,483.4-613.4,725.2-920.1C992,926.5,825.5,986.1,659,1045.8"/>
			<path class="st7" d="M1151.7,1549.8c-0.8-31.8,151.7-381.4,151.7-508.5c0-117-50.9-211.9-113.7-211.9s-113.7,94.9-113.7,211.9
				c0,3.5,0,7,0.1,10.4c1.4,53.9,74.2,53.9,75.6,0c0.1-3.4,0.1-6.9,0.1-10.4c0-117-67.9-211.9-151.7-211.9s-151.7,94.9-151.7,211.9
				c0,3.5,0,7,0.1,10.4c1.4,53.9,74.2,53.9,75.6,0c0.1-3.4,0.1-6.9,0.1-10.4c0-117-50.9-211.9-113.7-211.9s-113.7,94.9-113.7,211.9
				c0,127.1,150.9,476.7,151.7,508.5H1151.7z"/>
		</g>
		<g>
			<defs>
				<path id="SVGID_8_" d="M1595.2,601.7c0-335.1-266.5-558.6-595.2-558.6S404.7,266.6,404.7,601.7s297.6,782,297.6,930.9
					c0,8,1.8,15.6,5.1,22.8c7.3-13.5,21.5-22.8,37.9-22.8h509.3c16.3,0,30.6,9.2,37.9,22.8c3.3-7.2,5.1-14.7,5.1-22.8
					C1297.6,1383.7,1595.2,936.8,1595.2,601.7z"/>
			</defs>
			<clipPath id="SVGID_9_">
				<use xlink:href="#SVGID_8_"  style="overflow:visible;"/>
			</clipPath>
		</g>
	</g>
</g>
</svg>
